<svg xmlns="http://www.w3.org/2000/svg" viewBox="0 0 54.58 55.56">
  <g id="bc4a1903-6e5d-4dc0-b3ea-985ca07edeea" data-name="Layer 2">
    <g id="ad0e1177-2f3b-4f3d-8315-5ecd57eb0ae7" data-name="Layer 1">
      <g>
        <path d="M28.44,55.56c-1.16-.12-2.33-.18-3.47-.36-1.71-.26-3.41-.59-5.11-.9-.75-.14-1.49-.28-2.22-.44a10.87,10.87,0,0,1-2.79-1.12,29.79,29.79,0,0,1-6.53-5,36,36,0,0,1-4-4.68A29.88,29.88,0,0,1,2,39.21,10.1,10.1,0,0,1,1,36.35c-.14-.8-.24-1.61-.34-2.43-.13-1-.26-2-.37-3C.17,30.25.11,29.62.08,29,0,28.08,0,27.16,0,26.25a23.79,23.79,0,0,1,.4-4.46,21.16,21.16,0,0,1,2.79-7.32,29.93,29.93,0,0,1,4-5.25c1-1.09,2.09-2.15,3.19-3.16a21.15,21.15,0,0,1,4.43-3A25.63,25.63,0,0,1,19.22,1.2,26.68,26.68,0,0,1,23.06.32,28.19,28.19,0,0,1,28.49,0a27.44,27.44,0,0,1,3.62.39,24.17,24.17,0,0,1,3.94,1c.81.3,1.59.68,2.38,1.05.53.25,1,.55,1.57.81a25.2,25.2,0,0,1,7.08,5.35,26.14,26.14,0,0,1,3.72,5,27.42,27.42,0,0,1,3.75,15.06c0,1.11-.09,2.21-.19,3.32a22.33,22.33,0,0,1-1.56,6.53,23.93,23.93,0,0,1-4.27,6.77,32.56,32.56,0,0,1-6,5.25A36.59,36.59,0,0,1,38,53.24a21.53,21.53,0,0,1-5.64,1.94,19.26,19.26,0,0,1-3.87.32v.06M29.06,1l-2.58.11a26.51,26.51,0,0,0-3.68.36A10.68,10.68,0,0,0,20.87,2c-.74.28-1.44.66-2.16,1L14.94,4.74A7.13,7.13,0,0,0,12.7,6a2.78,2.78,0,0,1-.27.21c-1.11.86-2.26,1.67-3.32,2.58A21.26,21.26,0,0,0,4.75,14,23.39,23.39,0,0,0,2.2,19.9a25.45,25.45,0,0,0-.88,5.34,25.94,25.94,0,0,0,0,4c.12,1.13.27,2.25.46,3.36a30.65,30.65,0,0,0,1.84,6.22,4.55,4.55,0,0,0,.4.83l3.82,5.36a9.9,9.9,0,0,0,.83,1.1,23.7,23.7,0,0,0,2.89,2.49,27,27,0,0,0,5.52,3.18A25.87,25.87,0,0,0,23,53.54a27.77,27.77,0,0,0,4.06.4,21,21,0,0,0,3.27-.14c1.05-.14,2.1-.27,3.13-.47a21.16,21.16,0,0,0,7.11-2.87,26.26,26.26,0,0,0,4.59-3.61,29,29,0,0,0,4.21-5.23A27.84,27.84,0,0,0,52,36.08a22.07,22.07,0,0,0,1.08-4.23,4.13,4.13,0,0,1,1-2.18.41.41,0,0,0,.11-.23,4.21,4.21,0,0,0,0-.5,22.46,22.46,0,0,0-.11-4.1c-.13-1-.27-2.05-.47-3.06a24.79,24.79,0,0,0-1.76-5.43,27.18,27.18,0,0,0-2.82-4.87,26.78,26.78,0,0,0-4.82-5.1,29.3,29.3,0,0,0-3-2.14,6,6,0,0,0-1.63-.73c-.57-.14-1.14-.29-1.7-.46a3.73,3.73,0,0,1-1.68-.76A1.2,1.2,0,0,0,36,2.14a8.21,8.21,0,0,0-3-.88A37.21,37.21,0,0,0,29.06,1"/>
        <path d="M27.73,9.28c.06.38.15.72.18,1.07.11,1,.21,2,.28,3s.12,2.11.16,3.16c.06,1.92.14,3.84.15,5.76q.06,5.93.06,11.86c0,1.93,0,3.86-.11,5.79,0,1.29-.12,2.58-.21,3.87-.06.73-.16,1.45-.24,2.17,0,.15-.08.21-.23.22-.38,0-.75.06-1.13,0a.71.71,0,0,1-.77-.68,14.4,14.4,0,0,1-.16-2c0-5.65,0-11.3,0-16.95,0-1.41,0-2.82,0-4.24q0-3.6-.08-7.19c0-.72-.06-1.44-.06-2.15a6.08,6.08,0,0,1,.21-1.75,3,3,0,0,1,1.59-1.82l.4-.19"/>
      </g>
    </g>
  </g>
</svg>
